<svg width="989" height="803" viewBox="0 0 989 803" fill="none" xmlns="http://www.w3.org/2000/svg">
<path d="M964.445 371.273C964.445 380.484 956.676 388.046 946.972 388.046C937.269 388.046 929.5 380.484 929.5 371.273C929.5 362.062 937.269 354.5 946.972 354.5C956.676 354.5 964.445 362.062 964.445 371.273Z" fill="white" stroke="#CBCBCB" stroke-width="3"/>
<path d="M158.445 621.273C158.445 631.071 150.192 639.046 139.972 639.046C129.753 639.046 121.5 631.071 121.5 621.273C121.5 611.475 129.753 603.5 139.972 603.5C150.192 603.5 158.445 611.475 158.445 621.273Z" fill="white" stroke="#CBCBCB"/>
<path d="M158.445 602.273C158.445 612.071 150.192 620.046 139.972 620.046C129.753 620.046 121.5 612.071 121.5 602.273C121.5 592.475 129.753 584.5 139.972 584.5C150.192 584.5 158.445 592.475 158.445 602.273Z" fill="white" stroke="#CBCBCB"/>
<path d="M158.445 580.273C158.445 590.071 150.192 598.046 139.972 598.046C129.753 598.046 121.5 590.071 121.5 580.273C121.5 570.475 129.753 562.5 139.972 562.5C150.192 562.5 158.445 570.475 158.445 580.273Z" fill="white" stroke="#CBCBCB"/>
<path d="M946.972 398.546C957.451 398.546 965.945 390.365 965.945 380.273C965.945 370.181 957.451 362 946.972 362C936.494 362 928 370.181 928 380.273C928 390.365 936.494 398.546 946.972 398.546Z" fill="#A68BF6"/>
<path d="M477.395 95.3763C525.664 71.6284 583.395 78.5638 624.666 113.068L682.538 161.453C697.286 173.783 714.481 182.847 732.988 188.046L791.189 204.397C857.228 222.949 899.022 287.884 888.558 355.676L888.118 358.525C884.093 384.601 888.313 411.284 900.188 434.845V434.845C932.952 499.85 904.301 579.028 837.527 608.016L814.145 618.167C792.614 627.514 773.868 642.274 759.732 661.012L735.793 692.743C700.829 739.089 640.301 758.13 585.101 740.149L504.381 713.854C487.487 708.351 469.678 706.212 451.961 707.557L367.311 713.985C309.422 718.38 255.126 685.545 232.134 632.237L216.392 595.738C207.096 574.185 192.38 555.405 173.675 541.225L153.362 525.825C95.3537 481.847 86.2718 398.135 133.499 342.74V342.74C150.617 322.661 161.037 297.738 163.302 271.45L163.55 268.579C169.44 200.236 225.425 147.048 293.979 144.665L354.397 142.564C373.609 141.896 392.461 137.163 409.71 128.677L477.395 95.3763Z" fill="#A68BF6"/>
<path d="M234.863 435.08C235.483 480.432 249.78 485.342 267.338 480.612C287.396 475.208 303.859 458.272 311.973 435.863L317.568 420.408C321.289 410.134 321.414 398.528 317.917 388.145C314.419 377.761 307.586 369.45 298.92 365.039H298.92C294.629 362.855 290.017 361.695 285.348 361.624C280.679 361.553 276.044 362.573 271.707 364.626C267.37 366.679 263.417 369.725 260.073 373.589C256.73 377.454 254.06 382.061 252.218 387.148C234.212 395.534 230.656 412.896 234.863 435.08Z" fill="#2F2E41"/>
<path d="M347.762 343.799L353.151 332.987C353.809 331.667 354.207 330.187 354.314 328.659C354.42 327.131 354.234 325.594 353.768 324.163C353.302 322.732 352.569 321.445 351.624 320.398C350.679 319.352 349.546 318.572 348.31 318.118V318.118C347.006 317.64 345.625 317.537 344.28 317.82C342.936 318.102 341.668 318.762 340.582 319.743C339.497 320.725 338.625 322 338.039 323.462C337.453 324.924 337.17 326.53 337.214 328.148L337.531 339.77L312.205 422.057L326.016 425.476L347.762 343.799Z" fill="#9F616A"/>
<path d="M214.523 546.652L207.89 556.443C207.08 557.639 206.509 559.036 206.219 560.531C205.93 562.026 205.93 563.578 206.219 565.073C206.508 566.568 207.079 567.966 207.889 569.162C208.698 570.357 209.726 571.32 210.894 571.978V571.978C212.128 572.672 213.483 573.007 214.848 572.954C216.212 572.902 217.546 572.463 218.739 571.675C219.932 570.887 220.948 569.772 221.704 568.424C222.459 567.076 222.932 565.533 223.083 563.925L224.166 552.368L259.122 475.198L245.863 469.482L214.523 546.652Z" fill="#9F616A"/>
<path d="M255.506 628.109L256.482 642.014L256.711 645.258L321.632 637.856C323.87 637.556 326.017 636.636 327.898 635.168C329.779 633.7 331.342 631.727 332.459 629.408C333.576 627.09 334.215 624.492 334.326 621.825C334.437 619.159 334.015 616.499 333.095 614.061L312.158 560.771L304.926 542.365L273.586 533.79C247.743 557.241 270.995 583.122 300.249 609.303C301.394 610.331 302.551 611.36 303.721 612.389L255.506 628.109Z" fill="#2F2E41"/>
<path d="M233.63 676.259C234.421 676.393 235.228 676.284 235.973 675.942C236.718 675.6 237.377 675.037 237.886 674.307L259.122 643.829L257.916 629.538L250.676 624.388C250.083 623.966 249.421 623.703 248.734 623.616C248.047 623.529 247.352 623.62 246.698 623.883C246.044 624.146 245.446 624.575 244.946 625.14C244.446 625.705 244.055 626.392 243.802 627.153L229.951 668.754C229.692 669.531 229.585 670.368 229.638 671.201C229.691 672.034 229.903 672.841 230.257 673.564C230.611 674.286 231.098 674.904 231.683 675.37C232.267 675.837 232.933 676.141 233.63 676.259V676.259Z" fill="#2F2E41"/>
<path opacity="0.2" d="M251.89 625.251L253.095 642.4L256.482 642.014L318.016 634.997C320.254 634.698 322.401 633.778 324.282 632.31C326.163 630.842 327.726 628.869 328.843 626.55C329.959 624.232 330.599 621.634 330.71 618.967C330.821 616.3 330.399 613.64 329.479 611.203L312.158 565.23V560.771L304.926 542.365L273.586 533.79C247.743 557.241 270.995 583.122 300.249 609.303L300.104 609.531L251.89 625.251Z" fill="black"/>
<path d="M227.603 670.543C228.394 670.677 229.201 670.568 229.946 670.226C230.691 669.884 231.35 669.321 231.859 668.591L253.095 638.113L251.89 623.822L244.649 618.671C244.056 618.25 243.394 617.986 242.707 617.899C242.02 617.812 241.326 617.903 240.671 618.167C240.017 618.43 239.419 618.859 238.919 619.424C238.419 619.988 238.029 620.675 237.775 621.437L223.924 663.038C223.666 663.815 223.559 664.651 223.612 665.484C223.665 666.317 223.876 667.125 224.23 667.847C224.584 668.569 225.071 669.187 225.656 669.654C226.24 670.121 226.906 670.425 227.603 670.543V670.543Z" fill="#2F2E41"/>
<path d="M249.479 622.393L250.684 639.542L315.605 632.137C317.843 631.838 319.99 630.918 321.871 629.45C323.752 627.983 325.315 626.01 326.432 623.692C327.55 621.375 328.19 618.777 328.302 616.11C328.413 613.444 327.992 610.784 327.074 608.346L309.747 562.372V536.648L267.559 528.074C240.699 552.446 266.87 579.444 297.694 606.673L249.479 622.393Z" fill="#2F2E41"/>
<path d="M290.461 420.893C300.447 420.893 308.542 411.295 308.542 399.457C308.542 387.618 300.447 378.02 290.461 378.02C280.476 378.02 272.381 387.618 272.381 399.457C272.381 411.295 280.476 420.893 290.461 420.893Z" fill="#9F616A"/>
<path d="M266.354 435.184L291.667 455.191L313.363 449.474L301.31 435.184V413.747L282.024 412.318C281.619 420.878 277.482 428.712 266.354 435.184Z" fill="#9F616A"/>
<path d="M262.738 535.219L309.747 542.364L320.596 482.343C325.636 466.411 322.744 452.335 313.413 439.765C313.056 437.65 312.106 435.74 310.716 434.347C309.327 432.955 307.58 432.161 305.762 432.096L301.31 432.325C301.813 451.279 290.035 446.714 272.381 430.896L270.249 431.655C267.493 432.635 265.127 434.759 263.584 437.638C262.041 440.517 261.424 443.958 261.845 447.332L263.789 462.889C264.613 469.056 265.894 475.125 267.616 481.026C272.435 498.104 270.713 516.183 262.738 535.219Z" fill="#835AF1"/>
<path d="M241.041 470.911L262.738 479.485L272.381 438.042L269.114 436.281C266.406 434.822 263.33 434.638 260.512 435.769C257.694 436.899 255.344 439.258 253.939 442.367L241.041 470.911Z" fill="#835AF1"/>
<path d="M304.926 432.326L316.98 448.045L331.444 420.893L313.363 409.46L304.926 432.326Z" fill="#835AF1"/>
<path d="M269.367 393.026C280.729 398.105 292.855 397.579 305.529 393.026V375.877H269.367V393.026Z" fill="#2F2E41"/>
<path d="M833.272 687.404L820.806 693.562L737.707 559.326L677.46 696.025L661.88 692.331L707.584 503.907H760.56L833.272 687.404Z" fill="#2F2E41"/>
<path d="M849.994 718.719C849.303 718.942 848.582 719.001 847.872 718.893C847.161 718.784 846.476 718.511 845.855 718.087L819.568 700.142C818.858 699.658 818.252 698.987 817.796 698.18C817.341 697.373 817.048 696.453 816.941 695.491C816.834 694.529 816.914 693.55 817.177 692.631C817.44 691.711 817.878 690.876 818.457 690.19L820.807 687.404L833.272 686.173L852.327 707.861C853.02 708.65 853.524 709.642 853.788 710.738C854.052 711.833 854.066 712.992 853.829 714.095C853.592 715.199 853.112 716.209 852.438 717.021C851.765 717.833 850.921 718.419 849.994 718.719Z" fill="#2F2E41"/>
<path d="M646.195 723.645C646.886 723.868 647.608 723.928 648.318 723.819C649.028 723.711 649.714 723.437 650.334 723.013L676.622 705.069C677.332 704.584 677.938 703.913 678.393 703.106C678.849 702.3 679.141 701.379 679.249 700.417C679.356 699.455 679.275 698.476 679.012 697.557C678.749 696.637 678.311 695.802 677.732 695.116L675.383 692.33L662.918 691.099L643.863 712.787C643.17 713.576 642.666 714.569 642.402 715.664C642.138 716.759 642.124 717.918 642.361 719.022C642.598 720.125 643.078 721.135 643.751 721.947C644.425 722.759 645.268 723.345 646.195 723.645V723.645Z" fill="#2F2E41"/>
<path d="M672.267 308.095L667.073 311.79L656.31 291.054C655.649 289.78 655.256 288.337 655.164 286.846C655.072 285.354 655.284 283.859 655.782 282.485C656.28 281.111 657.049 279.899 658.025 278.952C659.001 278.004 660.155 277.349 661.389 277.041C662.486 276.767 663.62 276.774 664.715 277.063C665.81 277.351 666.84 277.913 667.736 278.712C668.633 279.511 669.374 280.528 669.912 281.695C670.45 282.862 670.771 284.152 670.854 285.478L672.267 308.095Z" fill="#FFB9B9"/>
<path d="M816.139 469.533L818.294 462.822L837.567 471.228C838.751 471.744 839.813 472.59 840.663 473.695C841.513 474.8 842.126 476.131 842.452 477.575C842.777 479.02 842.804 480.536 842.532 481.996C842.259 483.456 841.694 484.817 840.885 485.964V485.964C840.165 486.984 839.27 487.81 838.259 488.386C837.249 488.961 836.146 489.275 835.025 489.304C833.903 489.333 832.79 489.078 831.759 488.555C830.728 488.032 829.803 487.254 829.046 486.273L816.139 469.533Z" fill="#FFB9B9"/>
<path d="M734.591 381.987C743.196 381.987 750.172 373.716 750.172 363.514C750.172 353.312 743.196 345.041 734.591 345.041C725.986 345.041 719.01 353.312 719.01 363.514C719.01 373.716 725.986 381.987 734.591 381.987Z" fill="#FFB9B9"/>
<path d="M748.095 402.922H726.281V374.598L744.979 372.134L748.095 402.922Z" fill="#FFB9B9"/>
<path d="M763.676 511.296H704.468C706.555 472.13 708.209 434.279 704.468 412.775L707.91 393.182C708.387 390.468 709.709 388.066 711.612 386.453C713.514 384.841 715.859 384.137 718.18 384.481L726.281 385.681C731.767 397.116 738.398 397.006 746.017 386.913H755.775C757.076 386.913 758.364 387.22 759.564 387.818C760.763 388.415 761.85 389.29 762.761 390.391C763.671 391.493 764.388 392.798 764.868 394.232C765.348 395.665 765.582 397.198 765.556 398.74C768.098 412.54 768.943 426.702 768.066 440.788L763.676 511.296Z" fill="#3F3D56"/>
<path d="M663.956 308.095L672.266 303.169L716.933 390.608L704.468 412.775L663.956 308.095Z" fill="#3F3D56"/>
<path d="M816.257 473.037L823.359 465.935L785.624 403.245C781.932 397.112 776.843 392.353 770.952 389.525C765.061 386.697 758.613 385.918 752.362 387.279L751.171 387.538L765.44 417.143L784.233 434.012L816.257 473.037Z" fill="#3F3D56"/>
<path d="M752.611 352.609C752.611 352.609 755.522 345.015 747.952 341.563C747.952 341.563 741.547 329.136 728.736 337.421C728.736 337.421 720.002 341.563 720.002 352.609C720.002 363.655 717.09 365.726 717.09 365.726C717.09 365.726 721.426 360.452 722.591 356.31C723.755 352.168 732.812 351.228 736.306 355.37C739.8 359.513 748.535 358.822 748.535 358.822L747.952 374.01C747.952 374.01 750.864 365.036 752.028 365.036C753.193 365.036 754.358 352.609 752.611 352.609Z" fill="#2F2E41"/>
<path d="M751.172 766C803.825 766 846.509 763.364 846.509 760.113C846.509 756.862 803.825 754.226 751.172 754.226C698.519 754.226 655.835 756.862 655.835 760.113C655.835 763.364 698.519 766 751.172 766Z" fill="#E6E6E6"/>
<path d="M275.168 763.225C302.999 763.225 325.56 761.831 325.56 760.113C325.56 758.394 302.999 757.001 275.168 757.001C247.337 757.001 224.775 758.394 224.775 760.113C224.775 761.831 247.337 763.225 275.168 763.225Z" fill="#E6E6E6"/>
<path d="M660.182 332.576L353.831 365.128C352.327 365.285 350.831 364.729 349.672 363.581C348.513 362.433 347.786 360.787 347.649 359.004L340.839 268.908C340.706 267.125 341.175 265.352 342.143 263.978C343.111 262.604 344.499 261.741 346.003 261.579L652.354 229.027C653.859 228.869 655.354 229.426 656.513 230.574C657.672 231.721 658.4 233.367 658.536 235.15L665.347 325.247C665.48 327.03 665.011 328.803 664.043 330.177C663.074 331.551 661.686 332.414 660.182 332.576V332.576Z" fill="#835AF1"/>
<path d="M389.629 337.496C402.841 337.496 413.552 324.798 413.552 309.133C413.552 293.469 402.841 280.771 389.629 280.771C376.417 280.771 365.706 293.469 365.706 309.133C365.706 324.798 376.417 337.496 389.629 337.496Z" fill="white"/>
<path d="M443.235 284.453C442.183 284.567 441.213 285.171 440.536 286.133C439.86 287.095 439.533 288.335 439.627 289.583C439.722 290.83 440.229 291.982 441.039 292.785C441.849 293.589 442.895 293.979 443.947 293.87L631.161 273.977C631.683 273.922 632.191 273.746 632.656 273.459C633.12 273.171 633.533 272.778 633.869 272.301C634.205 271.825 634.459 271.274 634.616 270.681C634.772 270.088 634.829 269.465 634.782 268.846C634.735 268.227 634.586 267.625 634.343 267.075C634.1 266.524 633.768 266.036 633.365 265.638C632.963 265.24 632.498 264.94 631.998 264.755C631.498 264.57 630.971 264.504 630.449 264.56L443.235 284.453Z" fill="white"/>
<path d="M445.371 312.703C444.848 312.757 444.34 312.933 443.875 313.22C443.411 313.507 442.998 313.901 442.662 314.377C442.325 314.854 442.071 315.404 441.914 315.997C441.757 316.591 441.701 317.214 441.748 317.834C441.794 318.453 441.944 319.055 442.187 319.605C442.43 320.156 442.763 320.644 443.165 321.042C443.568 321.44 444.033 321.74 444.533 321.925C445.034 322.11 445.56 322.176 446.082 322.119L633.297 302.226C633.819 302.172 634.327 301.996 634.791 301.708C635.256 301.421 635.668 301.027 636.004 300.551C636.341 300.074 636.594 299.524 636.751 298.931C636.908 298.338 636.964 297.714 636.918 297.095C636.871 296.476 636.722 295.875 636.479 295.324C636.235 294.774 635.903 294.286 635.501 293.888C635.098 293.49 634.634 293.189 634.133 293.004C633.633 292.82 633.107 292.753 632.585 292.81L445.371 312.703Z" fill="white"/>
</svg>
