<svg width="858" height="583" viewBox="0 0 858 583" fill="none" xmlns="http://www.w3.org/2000/svg">
<path d="M482.341 54.1816C647.861 75.8244 715.64 148.22 808.348 210.732C901.057 273.245 855.551 510.055 683.252 528.992C510.953 547.929 267.656 560.152 111.896 472.212C-47.7453 382.08 17.0647 242.4 61.7707 182.059C106.477 121.718 316.82 32.5388 482.341 54.1816Z" fill="#A68BF6"/>
<path d="M176.27 43.371L152.049 21.2394L183.751 12.7847L176.27 43.371Z" fill="white" stroke="#A68BF6" stroke-width="3"/>
<path d="M799.046 400.172L763.477 407.546L776.457 373.62L799.046 400.172Z" fill="#A68BF6" stroke="#CCCCCC"/>
<rect x="733.676" y="54.8514" width="28" height="29" transform="rotate(-28.0692 733.676 54.8514)" fill="white" stroke="black" stroke-dasharray="2 2"/>
<g clip-path="url(#clip0)">
<path d="M312.005 296.454C309.211 292.325 305.264 288.504 305.014 283.408C304.784 278.734 307.839 274.094 306.551 269.623C305.56 266.185 302.292 264.11 299.099 263.012C292.986 260.939 286.444 261.226 280.488 263.829L280.811 263.569C277.176 262.092 272.927 263.617 270.068 266.442C267.207 269.266 265.508 273.181 264.189 277.105C262.87 281.028 261.848 285.095 260.016 288.774C258.183 292.452 255.377 295.797 251.675 297.068C252.914 299.889 256.789 300.856 259.061 298.913C259.641 298.375 260.163 297.76 260.615 297.08C262.13 294.977 263.646 292.875 265.161 290.773C266.721 293.937 264.391 298.304 266.308 301.233C267.296 302.744 269.101 303.317 270.778 303.729C283.881 306.919 297.474 306.343 310.334 302.055C311.368 301.707 312.508 301.229 312.937 300.161C313.432 298.929 312.739 297.54 312.005 296.454Z" fill="#2F2E41"/>
<path d="M349.158 312.57C349.077 312.98 349.023 313.397 348.999 313.817L320.359 332.668L313.398 328.095L305.977 339.18L317.611 348.64C318.551 349.404 319.683 349.8 320.836 349.768C321.99 349.736 323.104 349.278 324.01 348.462L353.542 321.881C354.875 322.444 356.327 322.531 357.704 322.129C359.081 321.728 360.318 320.858 361.251 319.635C362.184 318.412 362.768 316.894 362.927 315.283C363.085 313.671 362.81 312.043 362.137 310.615C361.465 309.186 360.427 308.025 359.162 307.286C357.897 306.547 356.465 306.265 355.056 306.477C353.647 306.69 352.328 307.386 351.274 308.475C350.221 309.563 349.483 310.991 349.158 312.57H349.158Z" fill="#FFB7B7"/>
<path d="M319.402 333.56L310.145 347.247C309.882 347.637 309.548 347.957 309.167 348.186C308.785 348.415 308.365 348.547 307.934 348.574C307.504 348.601 307.073 348.522 306.672 348.342C306.271 348.162 305.908 347.885 305.609 347.531L295.131 335.116C293.391 333.568 292.262 331.296 291.989 328.798C291.716 326.3 292.322 323.781 293.675 321.793C295.028 319.805 297.016 318.51 299.205 318.192C301.393 317.875 303.603 318.56 305.349 320.098L318.491 328.482C318.868 328.723 319.194 329.053 319.448 329.45C319.703 329.847 319.879 330.302 319.966 330.784C320.052 331.266 320.046 331.763 319.949 332.242C319.852 332.721 319.665 333.171 319.402 333.56H319.402Z" fill="#835AF1"/>
<path d="M306.663 572.038L314.836 572.037L318.724 536.068L306.661 536.069L306.663 572.038Z" fill="#FFB7B7"/>
<path d="M304.578 568.993L320.674 568.993H320.675C323.396 568.993 326.005 570.226 327.928 572.421C329.852 574.615 330.933 577.592 330.933 580.696V581.076L304.578 581.077L304.578 568.993Z" fill="#2F2E41"/>
<path d="M250.66 572.038L258.834 572.037L262.722 536.068L250.658 536.069L250.66 572.038Z" fill="#FFB7B7"/>
<path d="M248.575 568.993L264.672 568.993H264.672C267.393 568.993 270.002 570.226 271.926 572.421C273.85 574.615 274.93 577.592 274.931 580.696V581.076L248.575 581.077L248.575 568.993Z" fill="#2F2E41"/>
<path d="M301.754 291.37C302.605 282.522 297.009 274.562 289.254 273.591C281.499 272.62 274.522 279.005 273.671 287.853C272.82 296.7 278.416 304.66 286.171 305.631C293.926 306.602 300.903 300.217 301.754 291.37Z" fill="#FFB7B7"/>
<path d="M295.978 313.771L304.3 318.475C304.3 318.475 313.598 336.91 308.264 354.405C305.675 362.899 312.967 389.975 312.967 389.975C312.967 389.975 324.265 512.617 324.301 550.469C310.264 552.931 296.93 555.974 296.264 548.367C295.597 540.761 288.299 450.826 288.299 450.826C288.299 450.826 278.263 550.649 270.262 552.171C262.262 553.692 246.261 551.41 246.261 551.41C246.261 551.41 258.964 405.187 267.631 396.06L268.965 388.453L268.929 320.176L278.914 314.739L295.978 313.771Z" fill="#2F2E41"/>
<path d="M266.208 417.423C267.129 416.855 267.929 416.063 268.553 415.103C269.176 414.144 269.608 413.04 269.817 411.869C270.026 410.699 270.008 409.49 269.763 408.329C269.519 407.167 269.054 406.081 268.402 405.146L278.08 331.546L265.436 330.853L257.891 404.149C256.588 405.503 255.765 407.356 255.579 409.356C255.393 411.356 255.857 413.364 256.882 415.001C257.907 416.637 259.422 417.787 261.141 418.234C262.86 418.68 264.663 418.392 266.208 417.423Z" fill="#FFB7B7"/>
<path d="M277.805 349.987L262.683 348.898C262.253 348.867 261.833 348.731 261.454 348.498C261.074 348.265 260.742 347.942 260.482 347.55C260.221 347.158 260.038 346.707 259.944 346.227C259.85 345.747 259.848 345.249 259.938 344.768L263.089 327.912C263.24 325.401 264.258 323.061 265.919 321.405C267.58 319.749 269.749 318.912 271.951 319.078C274.152 319.244 276.206 320.399 277.661 322.29C279.117 324.181 279.856 326.654 279.717 329.166L280.984 346.284C281.02 346.774 280.963 347.268 280.817 347.73C280.671 348.193 280.44 348.615 280.138 348.966C279.836 349.318 279.472 349.591 279.069 349.767C278.667 349.943 278.236 350.018 277.805 349.987H277.805Z" fill="#835AF1"/>
<path d="M302.518 279.135C301.967 276.286 300.179 273.925 298.12 272.197C294.724 269.347 290.56 267.946 286.353 268.238C282.146 268.53 278.161 270.496 275.094 273.794C273.38 275.521 272.144 277.781 271.538 280.297C271.248 281.554 271.233 282.873 271.493 284.139C271.752 285.405 272.279 286.579 273.028 287.56L273.31 287.761C273.054 286.523 273.897 285.286 274.904 284.739C275.952 284.301 277.045 284.021 278.157 283.907C279.838 283.545 281.432 282.775 282.83 281.649C284.228 280.523 285.399 279.068 286.262 277.382C286.901 279.457 287.922 281.352 289.257 282.939C290.592 284.526 292.209 285.769 294 286.583C295.867 287.416 300.995 288.562 302.772 287.504C305.04 286.155 303.068 281.983 302.518 279.135Z" fill="#2F2E41"/>
<path d="M198.579 549.819C201.023 550.8 203.647 551.045 206.199 550.533C208.75 550.02 211.143 548.766 213.147 546.892C218.249 542.006 219.849 533.958 221.15 526.505L225 504.458L216.94 510.79C211.143 515.344 205.216 520.044 201.203 526.64C197.189 533.235 195.438 542.24 198.662 549.377" fill="#E6E6E6"/>
<path d="M199.824 578.045C198.809 569.613 197.765 561.071 198.479 552.548C199.111 544.979 201.135 537.587 205.256 531.523C207.443 528.311 210.105 525.56 213.121 523.391C213.908 522.825 214.632 524.247 213.849 524.811C208.629 528.574 204.593 534.131 202.32 540.68C199.81 547.963 199.407 555.902 199.84 563.639C200.101 568.317 200.656 572.965 201.214 577.608C201.258 577.818 201.23 578.039 201.137 578.226C201.043 578.414 200.891 578.554 200.71 578.619C200.526 578.675 200.33 578.647 200.164 578.539C199.998 578.432 199.876 578.254 199.824 578.044L199.824 578.045Z" fill="#F2F2F2"/>
<path d="M207.126 564.514C208.174 566.332 209.615 567.812 211.31 568.81C213.005 569.808 214.896 570.292 216.802 570.214C221.702 569.949 225.785 566.049 229.46 562.345L240.333 551.393L233.137 551C227.962 550.717 222.654 550.452 217.725 552.275C212.796 554.097 208.251 558.477 207.349 564.298" fill="#E6E6E6"/>
<path d="M196.956 582.893C201.84 573.033 207.505 562.075 217.628 558.573C220.442 557.602 223.394 557.255 226.322 557.548C227.246 557.639 227.015 559.263 226.094 559.172C221.184 558.707 216.284 560.186 212.218 563.36C208.306 566.399 205.259 570.623 202.681 575.102C201.102 577.846 199.687 580.706 198.273 583.563C197.821 584.476 196.499 583.816 196.956 582.893Z" fill="#F2F2F2"/>
<path d="M527.004 400.611C517.839 386.618 501.064 383.241 492.728 390.347C484.393 397.454 482.478 416.764 491.643 430.758C500.127 443.711 515.497 447.243 523.963 442.39C523.935 442.542 523.934 442.698 523.958 442.85L524.435 445.542C524.471 445.748 524.553 445.939 524.673 446.098C524.792 446.257 524.945 446.378 525.117 446.451C525.289 446.524 525.475 446.545 525.656 446.512C525.837 446.48 526.009 446.396 526.153 446.267L530.195 442.664C530.34 442.535 530.453 442.366 530.524 442.173C530.596 441.981 530.622 441.77 530.602 441.562C530.582 441.354 530.516 441.155 530.41 440.984C530.303 440.814 530.16 440.677 529.995 440.587L527.821 439.407C527.744 439.368 527.664 439.339 527.581 439.322C534.107 431.451 535.506 413.592 527.004 400.611Z" fill="#CCCCCC"/>
<path d="M506.956 395.328C511.439 396.141 515.478 398.886 518.239 402.997C520.999 407.109 522.271 412.273 521.791 417.423C521.693 418.603 523.308 418.595 523.406 417.423C523.868 411.872 522.474 406.327 519.503 401.899C516.531 397.472 512.203 394.49 507.385 393.551C506.369 393.354 505.932 395.129 506.956 395.328Z" fill="white"/>
<path d="M541.943 158.722C549.956 143.837 546.511 124.804 537.644 118.591C528.777 112.378 512.341 117.48 504.328 132.366C496.911 146.145 499.71 163.745 506.79 170.929C506.656 170.956 506.529 171.012 506.413 171.093L504.397 172.594C504.243 172.708 504.118 172.865 504.032 173.051C503.947 173.236 503.904 173.443 503.909 173.652C503.913 173.862 503.964 174.066 504.058 174.247C504.151 174.427 504.283 174.577 504.441 174.683L508.869 177.638C509.027 177.743 509.206 177.801 509.39 177.805C509.573 177.81 509.755 177.761 509.917 177.662C510.079 177.564 510.216 177.42 510.316 177.245C510.416 177.069 510.475 176.867 510.487 176.658L510.644 173.917C510.648 173.822 510.642 173.726 510.626 173.632C519.447 177.643 534.51 172.531 541.943 158.722Z" fill="#CCCCCC"/>
<path d="M538.842 135.515C539.836 140.569 539.092 145.865 536.762 150.31C534.433 154.756 530.697 158.011 526.325 159.405C525.327 159.736 525.93 161.446 526.921 161.117C531.613 159.557 535.615 156.03 538.124 151.245C540.632 146.46 541.462 140.769 540.448 135.314C540.233 134.164 538.625 134.356 538.842 135.515Z" fill="white"/>
<path d="M399.938 229.351C399.268 211.899 387.071 198.334 376.675 198.853C366.279 199.373 355.168 214.103 355.838 231.555C356.458 247.709 367.418 260.501 376.809 261.928C376.712 262.035 376.634 262.163 376.578 262.304L375.644 264.836C375.573 265.029 375.547 265.24 375.567 265.448C375.587 265.656 375.653 265.855 375.76 266.025C375.866 266.196 376.009 266.332 376.175 266.422C376.341 266.512 376.524 266.552 376.707 266.538L381.825 266.157C382.008 266.143 382.185 266.076 382.339 265.963C382.493 265.849 382.62 265.692 382.706 265.507C382.792 265.323 382.835 265.116 382.831 264.906C382.828 264.697 382.777 264.492 382.685 264.311L381.47 261.94C381.426 261.858 381.374 261.783 381.314 261.715C390.591 259.402 400.56 245.54 399.938 229.351Z" fill="#835AF1"/>
<path d="M385.976 212.108C389.28 215.66 391.264 220.523 391.517 225.694C391.769 230.865 390.272 235.949 387.335 239.898C386.671 240.81 388.01 241.841 388.669 240.935C391.79 236.644 393.374 231.166 393.103 225.598C392.832 220.031 390.726 214.786 387.207 210.916C386.464 210.1 385.227 211.287 385.976 212.108Z" fill="white"/>
<path d="M447.605 345.127C443.598 344.839 439.708 343.472 436.253 341.137C432.798 338.803 429.878 335.567 427.731 331.696C427.129 330.599 426.344 329.393 426.76 328.042C426.905 327.524 427.2 327.078 427.597 326.776C427.993 326.474 428.467 326.334 428.942 326.38C430.17 326.55 430.963 327.921 431.114 329.234C431.286 330.724 430.364 331.893 429.227 332.447C426.448 333.799 423.644 331.709 421.38 330.041C416.222 326.24 410.548 322.802 404.297 322.369C398.514 321.968 392.313 324.555 389.096 330.277C388.533 331.278 389.93 332.203 390.49 331.207C393.681 325.532 400.13 323.494 405.737 324.371C409.079 324.973 412.306 326.223 415.277 328.067C416.819 328.979 418.314 329.991 419.778 331.054C421.172 332.164 422.649 333.13 424.193 333.941C426.767 335.148 430.174 335.054 431.972 332.276C433.649 329.685 432.353 325.371 429.548 324.643C428.932 324.504 428.296 324.542 427.697 324.753C427.097 324.964 426.553 325.342 426.113 325.851C425.673 326.361 425.351 326.988 425.175 327.675C424.999 328.362 424.976 329.088 425.107 329.788C425.387 331.314 426.394 332.807 427.173 334.054C429.516 337.814 432.567 340.925 436.103 343.161C439.639 345.396 443.57 346.697 447.605 346.97C448.644 347.028 448.641 345.186 447.605 345.127L447.605 345.127Z" fill="#CCCCCC"/>
<path d="M602.704 218.181C607.125 215.834 612.554 215.065 617.053 217.246C621.552 219.426 624.619 225.016 623.164 229.962C622.505 232.205 621.003 234.411 621.588 236.676C622.038 238.419 623.61 239.57 625.153 240.389C626.696 241.207 628.385 241.895 629.501 243.276C630.617 244.656 630.85 247.033 629.455 248.103C628.996 248.456 628.422 248.623 627.976 248.995C627.597 249.347 627.323 249.825 627.193 250.363C627.063 250.901 627.083 251.472 627.251 251.996C627.622 253.05 628.236 253.971 629.027 254.662C630.61 256.219 632.702 258.001 632.21 260.212C632.028 260.803 631.723 261.335 631.322 261.763C630.921 262.191 630.436 262.502 629.907 262.67C628.809 263.031 627.669 263.203 626.526 263.179L579.821 264.858C578.279 264.99 576.729 264.891 575.21 264.564C574.471 264.41 573.769 264.084 573.145 263.607C572.522 263.129 571.992 262.51 571.588 261.788C570.694 259.899 571.281 257.573 572.386 255.809C573.49 254.045 575.053 252.654 576.345 251.035C577.637 249.415 578.693 247.393 578.466 245.3C578.283 243.625 577.315 242.177 576.62 240.654C575.924 239.132 575.52 237.229 576.421 235.829C577.69 233.855 580.737 234.033 582.179 232.194C583.268 230.806 583.058 228.808 583.166 227.019C583.427 222.714 586.039 218.648 589.758 216.76C591.649 215.834 593.706 215.434 595.759 215.594C597.812 215.753 599.802 216.468 601.566 217.678L602.704 218.181Z" fill="#2F2E41"/>
<path d="M659.582 431.221V439.935L630.121 444.082L630.122 431.22L659.582 431.221Z" fill="#9E616A"/>
<path d="M666.986 428.999L666.985 457.097H666.674C664.132 457.097 661.693 455.945 659.896 453.894C658.098 451.843 657.088 449.061 657.088 446.161V446.16L657.089 428.999L666.986 428.999Z" fill="#2F2E41"/>
<path d="M623.163 446.045L621.288 454.492L591.836 450.26L594.604 437.792L623.163 446.045Z" fill="#9E616A"/>
<path d="M630.818 445.964L624.772 473.202L624.47 473.115C622.005 472.403 619.89 470.603 618.588 468.111C617.287 465.62 616.907 462.64 617.53 459.828L617.531 459.828L621.224 443.191L630.818 445.964Z" fill="#2F2E41"/>
<path d="M615.641 348.32L617.232 350.211C617.232 350.211 627.612 359.497 619.932 383.96L607.369 425.25L649.478 427.123L648.575 445.991C648.575 445.991 587.509 449.866 588.044 438.384C588.578 426.902 590.831 384.389 590.831 384.389L578.144 372.765L581.203 353.104L615.641 348.32Z" fill="#2F2E41"/>
<path d="M583.022 367.059L578.144 372.765L561.788 424.059C561.788 424.059 559.296 436.854 564.903 439.697C570.51 442.54 606.589 458.444 606.589 458.444L610.273 443.317L582.474 424.28L595.431 404.868L597.381 374.272L583.022 367.059Z" fill="#2F2E41"/>
<path d="M583.282 276.569L624.797 267.099L625.699 293.085L614.945 319.235L617.232 350.211L580.025 357.627L581.19 316.896C581.19 316.896 571.199 300.814 577.085 284.605L583.282 276.569Z" fill="#E4E4E4"/>
<path d="M675.853 214.925C676.061 216.016 676.057 217.146 675.841 218.235C675.625 219.323 675.203 220.345 674.603 221.227C674.004 222.109 673.242 222.831 672.372 223.341C671.501 223.851 670.544 224.137 669.566 224.179L629.755 276.847L620.5 264.032L662.542 216.291C662.589 214.412 663.239 212.618 664.367 211.249C665.496 209.88 667.026 209.031 668.666 208.863C670.307 208.695 671.945 209.219 673.269 210.336C674.594 211.454 675.513 213.086 675.853 214.925Z" fill="#9E616A"/>
<path d="M638.423 271.101C638.433 271.592 638.349 272.081 638.178 272.532C638.007 272.984 637.752 273.388 637.431 273.717L626.237 285.214C624.832 287.155 622.81 288.38 620.614 288.622C618.418 288.864 616.228 288.103 614.523 286.506C612.818 284.908 611.738 282.605 611.519 280.1C611.301 277.595 611.961 275.094 613.357 273.144L621.17 258.388C621.393 257.967 621.693 257.606 622.05 257.329C622.406 257.052 622.811 256.866 623.236 256.784C623.661 256.701 624.097 256.724 624.514 256.851C624.93 256.978 625.318 257.206 625.65 257.52L637.335 268.534C637.667 268.847 637.937 269.239 638.125 269.682C638.312 270.125 638.414 270.609 638.423 271.101Z" fill="#E4E4E4"/>
<path d="M518.187 338.699C518.125 337.585 518.277 336.469 518.634 335.429C518.991 334.39 519.543 333.452 520.252 332.682C520.96 331.913 521.808 331.33 522.736 330.974C523.663 330.619 524.648 330.5 525.62 330.626L571.907 285.369L579.372 299.624L531.526 339.627C531.233 341.477 530.355 343.139 529.059 344.299C527.763 345.46 526.139 346.037 524.495 345.923C522.851 345.808 521.3 345.01 520.138 343.678C518.975 342.347 518.281 340.575 518.187 338.699V338.699Z" fill="#9E616A"/>
<path d="M562.581 289.567C562.636 289.079 562.783 288.611 563.012 288.194C563.241 287.776 563.545 287.42 563.906 287.15L576.485 277.699C578.13 276.021 580.29 275.155 582.493 275.292C584.696 275.428 586.762 276.556 588.238 278.427C589.713 280.299 590.478 282.761 590.365 285.275C590.251 287.789 589.269 290.149 587.633 291.838L577.967 305.089C577.691 305.467 577.347 305.773 576.958 305.986C576.569 306.198 576.145 306.313 575.713 306.322C575.282 306.331 574.854 306.233 574.459 306.036C574.064 305.839 573.711 305.548 573.423 305.181L563.32 292.291C563.032 291.924 562.817 291.491 562.69 291.021C562.562 290.551 562.525 290.055 562.581 289.567Z" fill="#E4E4E4"/>
<path d="M600.976 264.445C609.427 264.445 616.278 256.628 616.278 246.987C616.278 237.345 609.427 229.529 600.976 229.529C592.525 229.529 585.674 237.345 585.674 246.987C585.674 256.628 592.525 264.445 600.976 264.445Z" fill="#9E616A"/>
<path d="M616.63 244.505C611.798 244.062 607.786 238.554 608.288 233.053C608.345 235.321 607.669 237.533 606.389 239.269C605.109 241.005 603.315 242.143 601.347 242.468C599.13 242.747 596.7 241.982 594.771 243.257C592.634 244.67 591.95 248.102 589.724 249.323C587.573 250.502 584.841 248.893 583.778 246.456C582.715 244.018 582.976 241.089 583.681 238.488C584.685 234.778 586.514 231.428 588.989 228.763C591.465 226.098 594.502 224.21 597.807 223.282C601.111 222.353 604.57 222.416 607.847 223.465C611.124 224.513 614.107 226.511 616.507 229.265C618.539 231.597 620.152 234.569 620.414 237.843C620.675 241.117 619.344 244.67 616.767 246.141L616.63 244.505Z" fill="#2F2E41"/>
<path d="M391.991 582.211H154.623C154.458 582.211 154.299 582.136 154.182 582.003C154.066 581.87 154 581.689 154 581.5C154 581.312 154.066 581.131 154.182 580.998C154.299 580.864 154.458 580.79 154.623 580.79H391.991C392.156 580.79 392.314 580.864 392.431 580.998C392.548 581.131 392.614 581.312 392.614 581.5C392.614 581.689 392.548 581.87 392.431 582.003C392.314 582.136 392.156 582.211 391.991 582.211Z" fill="#CACACA"/>
</g>
<path d="M125.445 387.273C125.445 397.071 117.192 405.046 106.972 405.046C96.7525 405.046 88.5 397.071 88.5 387.273C88.5 377.475 96.7525 369.5 106.972 369.5C117.192 369.5 125.445 377.475 125.445 387.273Z" fill="#A68BF6" stroke="#2F2E41"/>
<path d="M125.445 368.273C125.445 378.071 117.192 386.046 106.972 386.046C96.7525 386.046 88.5 378.071 88.5 368.273C88.5 358.475 96.7525 350.5 106.972 350.5C117.192 350.5 125.445 358.475 125.445 368.273Z" fill="#A68BF6" stroke="#2F2E41"/>
<path d="M125.445 346.273C125.445 356.071 117.192 364.046 106.972 364.046C96.7525 364.046 88.5 356.071 88.5 346.273C88.5 336.475 96.7525 328.5 106.972 328.5C117.192 328.5 125.445 336.475 125.445 346.273Z" fill="#A68BF6" stroke="#2F2E41"/>
<line y1="454.5" x2="30" y2="454.5" stroke="black"/>
<line y1="-0.5" x2="27.0015" y2="-0.5" transform="matrix(-0.00984513 -0.999952 0.999968 -0.00797539 15.0116 468)" stroke="black"/>
<defs>
<clipPath id="clip0">
<rect width="522" height="468" fill="white" transform="translate(154 116)"/>
</clipPath>
</defs>
</svg>
