<svg width="198" height="769" viewBox="0 0 198 769" fill="none" xmlns="http://www.w3.org/2000/svg">
<path d="M196.445 380.273C196.445 389.484 188.676 397.046 178.972 397.046C169.269 397.046 161.5 389.484 161.5 380.273C161.5 371.062 169.269 363.5 178.972 363.5C188.676 363.5 196.445 371.062 196.445 380.273Z" fill="white" stroke="#CBCBCB" stroke-width="3"/>
<path d="M178.972 407.546C189.451 407.546 197.945 399.365 197.945 389.273C197.945 379.181 189.451 371 178.972 371C168.494 371 160 379.181 160 389.273C160 399.365 168.494 407.546 178.972 407.546Z" fill="#A68BF6"/>
<path d="M37.841 417.247L11.025 392.744L46.1228 383.384L37.841 417.247Z" fill="white" stroke="black"/>
<path d="M101.298 92.5519L91.3691 71.7692L117.069 71.8814L107.14 51.0987L132.84 51.2109L122.911 30.4282L145.578 34.5154L137.773 10.9502L160.136 15.435" stroke="black" stroke-width="2"/>
<path d="M29.9999 704.766L51.1779 695.711L49.9961 721.384L71.174 712.329L69.9922 738.002L91.1701 728.947L86.1429 751.424L110.013 744.606L104.601 766.764" stroke="#A68BF6" stroke-width="2"/>
<line y1="186.5" x2="30" y2="186.5" stroke="black"/>
<line y1="-0.5" x2="27.0015" y2="-0.5" transform="matrix(-0.00984513 -0.999952 0.999968 -0.00797539 15.0116 200)" stroke="black"/>
</svg>
