<svg width="201" height="390" viewBox="0 0 201 390" fill="none" xmlns="http://www.w3.org/2000/svg">
<rect x="0.676459" y="359.851" width="28" height="29" transform="rotate(-28.0692 0.676459 359.851)" fill="white" stroke="black"/>
<rect x="17.698" y="360.005" width="28" height="29" transform="rotate(-9.27782 17.698 360.005)" fill="white" stroke="white"/>
<path d="M116.87 50.8112C113.436 35.4391 99.6497 23.9979 89.835 24.908C80.0203 25.8182 71.8014 39.3002 75.2354 54.6723C78.414 68.9012 90.8985 79.7134 100.069 80.5644C99.9932 80.6637 99.939 80.78 99.9091 80.9071L99.4255 83.1817C99.3886 83.3551 99.3968 83.5421 99.4494 83.7248C99.502 83.9076 99.5971 84.0801 99.7258 84.226C99.8545 84.3719 100.012 84.4863 100.185 84.5584C100.357 84.6304 100.538 84.6577 100.71 84.6377L105.522 84.0788C105.694 84.0588 105.852 83.9921 105.98 83.8851C106.109 83.7781 106.204 83.6343 106.256 83.4674C106.308 83.3005 106.316 83.116 106.279 82.9314C106.242 82.7468 106.161 82.5683 106.044 82.4128L104.508 80.3728C104.453 80.3027 104.391 80.2385 104.324 80.1814C112.786 77.7364 120.056 65.071 116.87 50.8112Z" fill="#835AF1"/>
<path d="M103.221 84.0689C108.616 124.979 178.554 107.79 139.727 178.059" stroke="#CCCCCC"/>
<path d="M100.706 72.1657C96.0927 70.8508 91.9894 68.0234 89.2428 64.2671C86.4962 60.5107 85.3159 56.1123 85.9456 51.9796C86.078 51.0312 84.4079 50.8026 84.2763 51.7448C83.6545 56.2071 84.9517 60.9346 87.9079 64.9793C90.864 69.0239 95.2605 72.0865 100.216 73.553C101.261 73.8617 101.759 72.4767 100.706 72.1657Z" fill="white"/>
</svg>
