<svg width="594" height="690" viewBox="0 0 594 690" fill="none" xmlns="http://www.w3.org/2000/svg">
<path d="M30.6441 313.992C84.2182 206.748 136.461 121.638 207.5 44.9999C278.539 -31.6381 539.505 -11.5159 563.263 129.841C587.02 271.198 603.831 470.918 504.179 599.542C402.043 731.371 179.57 689.237 109.5 653C39.4299 616.763 -22.9299 421.237 30.6441 313.992Z" fill="#A68BF6"/>
<path d="M119.841 244.247L93.025 219.744L128.123 210.384L119.841 244.247Z" fill="#A68BF6" stroke="black"/>
<path d="M19.2979 656.552L9.36912 635.769L35.0691 635.881L25.1403 615.099L50.8402 615.211L40.9115 594.428L63.5785 598.515L55.7727 574.95L78.1365 579.435" stroke="black" stroke-width="2"/>
<g clip-path="url(#clip0)">
<path d="M406.926 413.504C395.386 420.962 374.827 430.307 353.818 420.703L340.238 414.495L367.452 381.617C345.735 355.812 333.721 322.211 333.754 287.373C333.787 252.535 345.865 218.96 367.631 193.203C389.397 167.445 419.289 151.353 451.472 148.068C483.654 144.783 515.818 154.54 541.684 175.435C567.551 196.33 585.264 226.863 591.366 261.075C597.469 295.287 591.522 330.721 574.687 360.462C557.852 390.203 531.337 412.116 500.318 421.923C469.299 431.731 436.002 428.729 406.926 413.504V413.504ZM354.782 287.294C354.722 303.354 357.746 319.253 363.664 333.992C369.583 348.731 378.267 361.99 389.171 372.937L396.678 380.539L379.553 401.227C388.473 399.277 396.242 394.076 400.182 391.056L405.587 386.911L411.401 390.353C427.471 399.836 445.498 404.805 463.819 404.803C523.943 404.803 572.857 352.089 572.857 287.294C572.857 222.5 523.943 169.786 463.819 169.786C403.696 169.786 354.782 222.5 354.782 287.294V287.294Z" fill="#3F3D56"/>
<path d="M344.21 287.294C344.21 216.104 397.761 158.393 463.82 158.393C529.878 158.393 583.429 216.104 583.429 287.294C583.429 358.485 529.878 416.196 463.819 416.196C443.715 416.227 423.93 410.772 406.31 400.339C398.042 406.679 377.872 419.324 357.946 410.215L381.932 381.239C370.009 369.2 360.508 354.649 354.019 338.488C347.53 322.328 344.192 304.903 344.21 287.294V287.294Z" fill="#835AF1"/>
<path opacity="0.1" d="M563.052 287.574C563.052 220.223 515.12 164.947 454.015 159.179C457.499 158.85 461.023 158.672 464.586 158.672C530.645 158.672 584.195 216.383 584.195 287.574C584.195 358.764 530.645 416.475 464.586 416.475C461.029 416.475 457.51 416.295 454.032 415.967C515.129 410.19 563.052 354.918 563.052 287.574Z" fill="black"/>
<path d="M188.193 592.575C158.307 592.591 129.324 581.535 106.101 561.261C82.878 540.987 66.8271 512.726 60.6379 481.216C54.4487 449.706 58.4974 416.861 72.1055 388.185C85.7135 359.509 108.054 336.745 135.383 323.708C162.712 310.671 193.368 308.153 222.214 316.576C251.061 325 276.344 343.853 293.827 369.975C311.31 396.098 319.93 427.903 318.243 460.06C316.556 492.217 304.664 522.772 284.56 546.604L311.775 579.482L298.195 585.69C277.185 595.294 256.626 585.949 245.087 578.491C227.353 587.756 207.902 592.571 188.193 592.575V592.575ZM188.193 334.773C128.07 334.773 79.1558 387.487 79.1558 452.281C79.1558 517.076 128.07 569.79 188.193 569.79C206.515 569.792 224.541 564.823 240.612 555.34L246.425 551.898L251.831 556.043C255.77 559.063 263.54 564.264 272.46 566.214L255.335 545.526L262.842 537.924C273.746 526.977 282.43 513.718 288.348 498.979C294.267 484.24 297.291 468.341 297.231 452.281C297.231 387.487 248.317 334.773 188.193 334.773V334.773Z" fill="#3F3D56"/>
<path d="M307.802 452.281C307.802 381.091 254.251 323.38 188.193 323.38C122.135 323.38 68.5842 381.091 68.5842 452.281C68.5842 523.471 122.135 581.182 188.193 581.182C208.298 581.214 228.082 575.759 245.702 565.326C253.97 571.666 274.141 584.311 294.066 575.202L270.081 546.226C282.004 534.187 291.505 519.635 297.994 503.475C304.483 487.315 307.821 469.89 307.802 452.281Z" fill="#835AF1"/>
<path opacity="0.1" d="M89.7272 451.63C89.7272 384.28 137.659 329.004 198.765 323.235C195.281 322.906 191.757 322.729 188.193 322.729C122.135 322.729 68.5842 380.44 68.5842 451.63C68.5842 522.82 122.135 580.531 188.193 580.531C191.751 580.531 195.269 580.351 198.748 580.023C137.651 574.246 89.7272 518.974 89.7272 451.63Z" fill="black"/>
<path d="M491.899 246.342C484.073 232.092 468.59 231.428 468.59 231.428C468.59 231.428 453.503 229.348 443.825 251.052C434.804 271.282 422.354 290.814 441.821 295.55L445.337 283.755L447.514 296.428C450.286 296.643 453.066 296.694 455.843 296.581C476.69 295.856 496.544 296.793 495.905 288.731C495.055 278.014 499.429 260.054 491.899 246.342Z" fill="#2F2E41"/>
<path d="M440.709 371.141C440.479 372.708 440.145 374.256 439.711 375.772C439.221 377.256 438.465 378.629 438.017 380.128C436.59 384.907 438.568 390.236 441.729 393.925C444.469 397.111 448.006 399.375 451.914 400.443C454.791 401.106 457.725 401.439 460.667 401.434C468.802 401.732 477.147 401.997 484.856 399.18C487.291 398.268 489.644 397.116 491.883 395.739C492.591 395.376 493.214 394.848 493.707 394.192C494.223 393.232 494.453 392.123 494.365 391.018C494.348 387.301 493.649 383.603 493.815 379.891C493.906 377.834 494.264 375.78 494.088 373.73C493.844 371.401 492.939 369.211 491.497 367.458C490.054 365.706 488.144 364.477 486.028 363.939C483.841 363.433 481.573 363.709 479.346 363.939C473.567 364.538 467.763 364.818 461.958 364.777C456.026 364.737 450.131 363.761 444.229 363.659C442.483 363.629 442.518 364.209 441.963 366.029C441.451 367.705 441.032 369.412 440.709 371.141V371.141Z" fill="#2F2E41"/>
<path d="M457.543 279.366C457.258 280.974 456.95 282.642 456.053 283.964C455.021 285.485 453.338 286.354 452.228 287.809C450.557 290 450.461 293.083 450.454 295.919C450.448 298.531 450.497 301.318 451.849 303.487C452.811 304.834 454.005 305.968 455.366 306.828C460.436 310.511 465.915 314.259 472.027 314.38C474.56 314.43 477.276 313.726 478.942 311.67C479.662 310.704 480.227 309.616 480.616 308.451C482.179 304.299 483.127 299.907 483.424 295.438C483.649 293.337 483.467 291.208 482.889 289.187C482.147 286.956 480.645 285.12 479.653 283.004C478.48 280.489 478.051 277.646 478.424 274.86C478.473 274.664 478.458 274.455 478.381 274.269C478.299 274.17 478.197 274.093 478.083 274.043C477.969 273.993 477.846 273.972 477.723 273.982L465.603 273.042C464.474 272.982 463.35 272.843 462.238 272.627C461.584 272.484 459.858 271.484 459.235 271.75C458.082 272.242 457.779 278.032 457.543 279.366Z" fill="#A0616A"/>
<path opacity="0.1" d="M457.543 279.774C457.258 281.382 456.95 283.05 456.053 284.372C455.021 285.892 453.338 286.761 452.228 288.217C450.557 290.408 450.461 293.491 450.454 296.327C450.448 298.939 450.497 301.726 451.849 303.894C452.811 305.242 454.005 306.376 455.366 307.236C460.436 310.918 465.915 314.667 472.027 314.788C474.56 314.838 477.276 314.133 478.942 312.077C479.662 311.112 480.227 310.024 480.616 308.859C482.179 304.706 483.127 300.315 483.424 295.846C483.649 293.745 483.467 291.616 482.889 289.595C482.147 287.364 480.645 285.528 479.653 283.412C478.48 280.897 478.051 278.054 478.424 275.268C478.473 275.071 478.458 274.863 478.381 274.677C478.299 274.578 478.197 274.5 478.083 274.451C477.969 274.401 477.846 274.38 477.723 274.39L465.603 273.45C464.474 273.389 463.35 273.251 462.238 273.035C461.584 272.892 459.858 271.892 459.235 272.158C458.082 272.65 457.779 278.44 457.543 279.774Z" fill="black"/>
<path d="M469.134 281.118C478.955 281.118 486.916 272.538 486.916 261.954C486.916 251.37 478.955 242.791 469.134 242.791C459.313 242.791 451.352 251.37 451.352 261.954C451.352 272.538 459.313 281.118 469.134 281.118Z" fill="#A0616A"/>
<path d="M460.037 304.876C460.916 305.972 461.974 306.884 463.16 307.565C464.397 308.116 465.725 308.389 467.062 308.366C470.268 308.463 473.743 307.83 475.972 305.347C478.847 302.145 478.752 296.982 481.005 293.247C481.187 292.909 481.434 292.617 481.731 292.391C482.109 292.17 482.536 292.064 482.966 292.086C485.811 292.057 488.29 294.046 490.527 295.941C491.58 296.722 492.483 297.714 493.188 298.863C493.631 299.793 493.934 300.793 494.086 301.825C495.196 307.665 495.555 313.636 495.912 319.585C496.109 322.871 496.307 326.16 496.292 329.452C496.244 340.3 493.904 350.967 491.577 361.521C491.278 362.881 490.867 364.401 489.72 365.053C489.208 365.3 488.659 365.445 488.099 365.479C481.435 366.322 474.757 367.167 468.048 367.278C465.43 367.322 462.813 367.253 460.197 367.073C459.747 367.067 459.301 366.983 458.875 366.825C458.297 366.526 457.801 366.071 457.433 365.505C453.804 360.577 453.59 353.764 453.613 347.472C453.67 332.091 454.18 316.721 455.143 301.364C455.223 300.096 455.24 298.557 454.392 297.56C456.043 300.195 457.934 302.646 460.037 304.876V304.876Z" fill="white"/>
<path d="M456.27 282.748C455.67 283.92 451.242 286.829 450.387 287.8C445.611 293.226 436.894 293.022 432.526 298.833C430.989 300.878 430.191 303.447 429.603 306.001C428.773 309.613 428.329 313.552 429.721 316.958C431.06 320.235 433.878 322.501 435.791 325.428C437.892 328.642 438.837 332.545 439.742 336.354C440.41 339.166 441.084 342.048 440.824 344.937C440.528 348.222 439.053 351.231 438.182 354.395C437.311 357.559 437.161 361.328 439.175 363.815C440.654 365.642 442.974 366.366 445.193 366.773C448.033 367.234 450.898 367.502 453.77 367.578C456.306 367.699 459.101 367.722 461.05 365.971C462.588 364.588 463.256 362.345 463.343 360.189C463.429 358.033 463.013 355.896 462.752 353.756C462.482 351.538 462.378 349.3 462.291 347.065C461.901 337.035 461.848 326.999 462.132 316.957C462.274 314.869 462.18 312.771 461.849 310.709C461.305 308.022 459.958 305.622 458.834 303.153C456.587 298.504 455.569 293.279 455.892 288.049C456.233 282.674 458.408 278.579 456.27 282.748Z" fill="white"/>
<path d="M481.241 283.156C482.156 284.169 485.264 284.503 486.428 285.156C487.522 285.701 488.665 286.127 489.838 286.428C494.082 287.748 498.12 289.745 501.816 292.353C502.584 292.837 503.263 293.469 503.819 294.218C504.405 295.245 504.782 296.394 504.927 297.59C505.497 300.631 506.069 303.71 505.941 306.81C505.805 310.101 504.886 313.288 503.973 316.431L500.564 328.178C498.019 336.946 495.458 345.8 494.742 354.954C494.346 360.028 494.522 365.135 495.266 370.163C495.336 370.407 495.357 370.665 495.328 370.919C495.298 371.173 495.219 371.417 495.094 371.636C494.87 371.875 494.574 372.021 494.26 372.05C492.614 372.327 491.022 371.423 489.531 370.623C484.974 368.179 480.111 366.464 475.095 365.532C477.055 362.48 478.567 359.12 479.579 355.571C480.153 353.318 480.605 351.031 480.933 348.721L482.519 338.835C483.165 335.222 483.619 331.572 483.88 327.903C484 326.527 483.925 325.138 483.659 323.785C483.294 322.498 482.808 321.254 482.211 320.072C479.597 314.212 478.37 307.526 479.399 301.12C479.849 298.316 480.724 295.509 480.359 292.691C480.008 289.982 480.373 287.876 479.728 285.195C477.079 274.186 479.52 281.25 481.241 283.156Z" fill="white"/>
<path d="M432.481 308.097C431.289 310.762 429.297 313.032 428.619 315.899C428.355 317.239 428.242 318.608 428.282 319.976C428.165 322.039 428.354 324.109 428.844 326.108C429.222 327.372 429.838 328.537 430.281 329.777C430.899 331.508 431.175 333.36 431.09 335.212C430.97 337.779 430.161 340.271 430.098 342.84C429.998 346.881 431.732 350.679 433.424 354.286C433.85 353.149 434.501 352.127 435.332 351.29C436.163 350.453 437.154 349.821 438.235 349.44C439.316 349.059 440.461 348.936 441.59 349.082C442.72 349.227 443.806 349.637 444.773 350.282C445.161 349.769 445.344 349.112 445.285 348.454C445.41 343.766 445.53 339.079 445.646 334.391C445.83 327.141 446.004 319.794 444.457 312.736C443.758 309.549 442.671 306.375 440.678 303.903C439.628 302.602 436.066 299.173 434.343 300.632C433.568 301.287 433.749 303.072 433.627 303.976C433.441 305.404 433.055 306.794 432.481 308.097V308.097Z" fill="white"/>
<path d="M506.29 300.418C506.769 302.339 506.974 304.328 506.898 306.317C506.921 310.369 506.871 314.42 506.749 318.471C506.767 320.549 506.521 322.62 506.016 324.625C505.631 325.929 505.037 327.152 504.64 328.452C503.449 332.347 504.1 336.572 504.202 340.671C504.274 341.998 504.169 343.329 503.89 344.624C503.261 347.166 501.572 349.219 500.393 351.522C499.273 353.709 498.598 356.161 497.261 358.201C495.923 360.241 493.608 361.858 491.365 361.232C489.664 360.757 488.456 359.135 487.621 357.471C485.797 353.811 485.174 349.594 485.851 345.504C486.69 340.529 489.402 336.114 490.38 331.168C491.723 324.376 489.682 317.367 489.743 310.422C489.715 309.334 489.852 308.248 490.148 307.207C490.661 305.62 491.763 304.354 492.781 303.081C494.053 301.492 495.235 299.82 496.319 298.077C497.048 296.906 498.038 293.893 499.33 293.643C502.214 293.083 505.574 298.016 506.29 300.418Z" fill="white"/>
<path d="M417.513 368.12C415.918 367.688 414.275 367.5 412.631 367.561C410.904 367.664 409.217 368.162 407.682 369.022C406.148 369.882 404.8 371.084 403.73 372.548C402.66 374.013 401.891 375.706 401.476 377.515C401.06 379.325 401.006 381.209 401.318 383.042C401.716 385.028 402.367 386.945 403.252 388.739C404.547 391.571 406.1 394.397 408.497 396.211C409.942 397.209 411.497 398.007 413.126 398.586L425.751 403.711C427.608 404.465 429.465 405.219 431.341 405.919C440.764 409.429 450.588 411.533 460.54 412.174C463.569 412.48 466.622 412.313 469.606 411.679C470.328 411.578 470.989 411.193 471.463 410.598C471.704 410.146 471.846 409.641 471.878 409.122L472.655 403.261C472.829 402.444 472.806 401.594 472.589 400.79C472.233 399.805 471.341 399.185 470.49 398.659C462.191 393.521 452.499 390.687 445.513 383.636C443.869 381.976 442.492 379.345 440.494 378.217C438.228 376.939 435.56 376.209 433.217 375.031C428.097 372.455 423.063 369.495 417.513 368.12Z" fill="#2F2E41"/>
<path opacity="0.1" d="M430.117 376.022C434.58 377.529 453.42 387.969 456.649 391.614C456.216 391.782 441.53 382.912 441.089 382.769C437.05 381.574 433.094 380.072 429.252 378.274C428.486 377.892 424.28 376.099 424.47 375.059C424.685 373.885 429.325 375.754 430.117 376.022Z" fill="black"/>
<path d="M485.788 415.214C486.041 415.234 486.292 415.154 486.495 414.99C486.584 414.866 486.649 414.726 486.687 414.575C486.725 414.424 486.735 414.267 486.716 414.112L486.695 406.128C484.565 405.034 482.181 404.683 479.842 404.346L468.928 402.774C469.178 402.81 467.221 407.84 467.521 408.511C468.05 409.695 472.093 410.744 473.233 411.303C477.199 413.246 481.321 415.381 485.788 415.214Z" fill="#A0616A"/>
<path d="M451.543 406.1C449.482 406.454 447.182 406.766 445.848 408.495C444.155 410.688 444.876 413.956 445.683 416.672C445.732 417.022 445.846 417.359 446.018 417.661C446.19 417.963 446.417 418.225 446.684 418.431C446.952 418.638 447.255 418.784 447.576 418.862C447.897 418.939 448.229 418.947 448.553 418.884C450.432 419.012 452.432 419.113 454.074 418.119C454.818 417.589 455.534 417.016 456.219 416.401C457.43 415.533 458.761 414.877 460.163 414.458C462.739 413.584 465.392 412.995 468.079 412.7C469.138 412.648 470.186 412.449 471.197 412.107C471.703 411.932 472.164 411.633 472.544 411.235C472.925 410.836 473.216 410.349 473.393 409.809C473.774 408.358 472.991 406.879 472.241 405.606C471.376 403.94 470.253 402.444 468.921 401.185C466.888 399.483 465.882 400.789 463.833 401.879C459.956 403.941 455.813 405.364 451.543 406.1V406.1Z" fill="#A0616A"/>
<path d="M446.158 408.1L433.072 403.932C431.503 403.343 429.863 403.001 428.203 402.915C427.372 402.879 426.543 403.034 425.772 403.37C425.001 403.706 424.305 404.215 423.731 404.864C422.716 406.148 422.426 407.902 422.173 409.566L421.632 413.125C421.271 414.919 421.169 416.763 421.329 418.591C421.416 419.505 421.695 420.386 422.146 421.166C422.596 421.946 423.206 422.606 423.928 423.094C425.739 424.158 427.958 423.638 429.979 423.193C434.061 422.294 438.213 421.814 442.379 421.76C443.946 421.74 445.588 421.761 446.972 420.97C447.776 420.457 448.451 419.74 448.938 418.882C449.426 418.024 449.712 417.05 449.771 416.046C450.029 413.005 449.088 409.034 446.158 408.1Z" fill="#2F2E41"/>
<path d="M490.931 404.468C492.627 404.148 494.125 403.109 495.75 402.496C498.038 401.632 500.517 401.632 502.941 401.642C503.832 401.554 504.728 401.748 505.519 402.198C506.587 402.964 506.861 404.498 507.042 405.866L508.138 414.122C508.431 415.663 508.461 417.248 508.227 418.8C507.906 420.33 506.938 421.805 505.529 422.2C503.818 422.679 502.141 421.501 500.525 420.727C496.487 418.793 491.793 419.288 487.583 417.842C487.18 417.755 486.8 417.577 486.466 417.32C486.132 417.063 485.853 416.732 485.646 416.349C485.502 415.891 485.451 415.404 485.495 414.923C485.567 412.269 485.048 408.645 485.789 406.109C486.456 403.827 489.038 404.468 490.931 404.468Z" fill="#2F2E41"/>
<path d="M518.622 364.797C521.237 364.091 523.947 363.891 526.627 364.208C528.767 364.462 530.972 365.104 532.534 366.7C534.436 368.643 535.047 371.647 535.098 374.471C535.181 380.094 533.45 385.575 530.201 389.976C529.408 391.089 528.464 392.068 527.402 392.88C526.256 393.652 525.034 394.287 523.76 394.771L495.487 406.789C488.049 409.951 480.585 413.122 472.827 415.206C472.615 415.316 472.384 415.38 472.149 415.393C471.914 415.406 471.678 415.368 471.457 415.281C471.236 415.195 471.032 415.061 470.86 414.889C470.687 414.717 470.548 414.509 470.45 414.278C467.973 410.464 465.895 406.367 464.254 402.062C464.176 401.959 464.122 401.838 464.097 401.709C464.072 401.58 464.076 401.446 464.109 401.318C464.142 401.191 464.204 401.074 464.287 400.978C464.371 400.881 464.476 400.808 464.591 400.764L484.589 388.381C486.055 387.557 487.422 386.542 488.659 385.359C489.523 384.456 490.231 383.395 490.749 382.224C491.163 381.291 491.202 379.089 491.731 378.399C492.25 377.724 494.023 377.67 494.842 377.404C495.997 377.023 497.128 376.562 498.229 376.025C502.702 373.868 506.685 370.735 510.974 368.209C513.379 366.727 515.949 365.581 518.622 364.797V364.797Z" fill="#2F2E41"/>
<path opacity="0.1" d="M507.286 374.044C503.85 376.825 499.401 379.381 495.996 382.236C494.834 383.21 475.461 394.947 475.188 396.506C478.364 397.083 498.6 381.827 501.496 380.304C504.391 378.782 506.958 376.635 509.501 374.504C510.149 373.961 512.896 372.328 511.035 371.722C509.987 371.38 508.059 373.488 507.286 374.044Z" fill="black"/>
<path d="M483.646 283.425H453.487C452.262 283.425 451.087 283.95 450.221 284.884C449.354 285.817 448.868 287.084 448.868 288.404V290.227H448.54V294.305H448.868V297.159H448.54V299.605H448.868V329.69C448.868 331.011 449.354 332.277 450.221 333.211C451.087 334.144 452.262 334.669 453.487 334.669H483.646C484.871 334.669 486.046 334.144 486.913 333.211C487.779 332.277 488.266 331.011 488.266 329.69V288.404C488.266 287.084 487.779 285.817 486.912 284.884C486.046 283.95 484.871 283.425 483.646 283.425V283.425Z" fill="#D0CDE1"/>
<path d="M488.439 244.969L473.143 236.334L452.019 239.866L447.649 260.668L458.528 260.217L461.567 252.575V260.092L466.587 259.883L469.5 247.716L471.322 260.668L489.167 260.276L488.439 244.969Z" fill="#2F2E41"/>
<path d="M436.483 362.103C437.175 363.37 438.158 364.425 439.338 365.164C440.112 365.545 440.957 365.73 441.807 365.706C442.658 365.681 443.492 365.447 444.246 365.022C445.752 364.152 446.985 362.82 447.788 361.195C449.45 358.031 449.795 354.246 449.587 350.617C449.38 346.988 448.661 343.415 448.343 339.795C448.111 337.164 448.093 334.518 448.074 331.875C448.017 331.319 448.125 330.758 448.383 330.273C448.827 329.797 449.402 329.487 450.023 329.39C453.378 328.316 455.605 324.927 457.201 321.57C458.267 319.329 459.194 316.879 458.989 314.37C458.783 311.861 457.11 309.334 454.785 309.078C452.868 308.867 451.098 310.179 449.716 311.625C446.228 315.296 443.986 320.124 443.351 325.333C443.047 327.884 443.134 330.504 442.491 332.981C441.116 338.269 436.815 341.511 434.671 346.269C432.309 351.512 433.613 357.464 436.483 362.103Z" fill="#A0616A"/>
<path d="M499.777 341.901C499.288 343.127 498.575 344.236 497.682 345.161C496.789 346.085 495.733 346.808 494.577 347.286C493.139 347.908 491.553 348.013 490.056 347.584C489.313 347.362 488.628 346.959 488.054 346.405C487.48 345.851 487.032 345.163 486.744 344.392C486.515 343.616 486.39 342.809 486.371 341.994C486.156 338.428 486.239 334.754 487.441 331.424C487.905 330.139 488.53 328.921 488.896 327.6C489.255 326.075 489.439 324.508 489.443 322.934L489.839 313.204C489.904 312.498 489.859 311.785 489.704 311.095C489.31 309.687 488.089 308.772 486.969 307.933C484.264 305.905 481.59 303.539 480.279 300.281C479.829 299.3 479.668 298.194 479.817 297.111C480.187 295.179 481.996 293.929 483.784 293.507C484.954 293.232 486.164 293.214 487.34 293.456C488.517 293.697 489.636 294.193 490.63 294.913C491.624 295.633 492.472 296.562 493.124 297.645C493.776 298.728 494.217 299.942 494.422 301.213C494.599 302.311 494.597 303.433 494.7 304.542C494.92 306.894 495.613 309.161 496.046 311.479C497.114 317.187 496.561 323.087 497.617 328.794C498.499 333.566 501.828 336.68 499.777 341.901Z" fill="#A0616A"/>
<path d="M468.97 305.314C471.06 305.314 472.754 303.488 472.754 301.236C472.754 298.984 471.06 297.159 468.97 297.159C466.881 297.159 465.187 298.984 465.187 301.236C465.187 303.488 466.881 305.314 468.97 305.314Z" fill="#835AF1"/>
<path d="M58.1617 447.777C64.3256 447.777 69.3223 442.392 69.3223 435.749C69.3223 429.106 64.3256 423.721 58.1617 423.721C51.9979 423.721 47.0012 429.106 47.0012 435.749C47.0012 442.392 51.9979 447.777 58.1617 447.777Z" fill="#2F2E41"/>
<path d="M98.6171 471.456L92.9956 465.567L81.7076 469.346L82.7918 483.431L106.002 482.27L98.8714 471.828L98.6171 471.456Z" fill="#FBBEBE"/>
<path d="M86.3225 471.334C96.2877 471.334 104.366 462.628 104.366 451.889C104.366 441.15 96.2877 432.444 86.3225 432.444C76.3573 432.444 68.2789 441.15 68.2789 451.889C68.2789 462.628 76.3573 471.334 86.3225 471.334Z" fill="#FBBEBE"/>
<path d="M198.338 496.414C198.338 496.414 220.505 537.468 225.781 543.631C228.289 546.664 230.962 549.535 233.785 552.229C233.785 552.229 231.305 561.094 227.355 560.778C225.103 560.632 222.896 560.045 220.839 559.047C220.839 559.047 219.076 554.122 216.001 551.962C212.926 549.802 187.802 523.165 188.389 514.652C188.976 506.138 198.338 496.414 198.338 496.414Z" fill="#2F2E41"/>
<path d="M119.395 554.999C119.395 554.999 143.03 574.769 175.151 556.193L177.919 553.997C177.919 553.997 173.247 565.323 172.814 568.393C172.311 571.953 160.149 592.809 158.165 593.808C156.18 594.807 155.742 595.729 155.742 595.729L164.165 605.719L167.279 603.25C167.279 603.25 179.422 584.709 182.973 581.318C186.525 577.926 203.446 542.95 203.446 542.95C203.446 542.95 209.915 529.771 193.77 528.78C177.624 527.788 170.194 532.531 170.194 532.531L141.54 537.436L119.395 554.999Z" fill="#2F2E41"/>
<path d="M234.059 550.286L246.014 559.2C246.014 559.2 261.265 564.35 251.871 567.777C242.476 571.204 217.719 572.443 217.157 567.715C216.595 562.987 218.134 555.545 219.369 555.952C220.604 556.359 229.176 558.758 234.059 550.286Z" fill="#2F2E41"/>
<path d="M168.337 600.187L170.55 613.282C170.55 613.282 176.841 626.249 169.287 622.226C161.733 618.202 146.169 602.919 148.468 599.715C150.766 596.511 155.838 593.036 156.353 594.08C156.869 595.124 160.681 602.115 168.337 600.187Z" fill="#2F2E41"/>
<path d="M145.542 541.735C145.542 541.735 129.476 561.95 119.722 557.04C109.967 552.129 70.0613 495.253 74.6179 484.741C79.1745 474.229 80.7023 476.466 80.7023 476.466L101.307 478.519L95.3786 468.275C95.3786 468.275 98.1467 466.08 100.784 469.162C103.422 472.243 114.012 479.94 117.701 490.81C121.391 501.681 132.222 501.138 132.222 501.138L145.542 541.735Z" fill="white"/>
<path d="M210.423 500.051L182.573 531.911L157.624 484.441L181.342 453.559L210.423 500.051Z" fill="#3F3D56"/>
<path d="M208.321 499.706L183.167 527.704L160.373 484.56L181.277 456.198L208.321 499.706Z" fill="white"/>
<path d="M181.208 530.694L182.573 531.911L181.698 533.755L142.754 546.246L142.386 544.808L144.158 542.833L181.208 530.694Z" fill="#B3B3B3"/>
<path d="M182.919 531.637L142.592 545.225L118.009 495.165L157.624 484.441L182.919 531.637Z" fill="#D0CDE1"/>
<path d="M179.883 524.847L178.153 526.219L158.95 490.288L160.935 489.289L179.883 524.847Z" fill="#3F3D56"/>
<path d="M175.913 526.845L158.854 532.327L139.488 495.376L156.365 491.189L175.913 526.845Z" fill="#3F3D56"/>
<path d="M127.854 499.429L131.386 498.352C131.386 498.352 151.083 495.952 151.371 502.622C151.658 509.292 128.742 506.198 128.742 506.198L125.686 501.723L127.854 499.429Z" fill="#FBBEBE"/>
<path d="M145.13 529.415L150.046 527.241C150.046 527.241 164.886 520.071 160.629 515.399C156.372 510.727 143.243 518.84 143.243 518.84L140.73 521.409L145.13 529.415Z" fill="#FBBEBE"/>
<path d="M140.749 519.094C140.749 519.094 148.754 527.691 146.932 529.711C145.111 531.73 115.243 558.292 107.839 549.793C100.435 541.294 64.3618 498.623 78.3985 494.964C92.4351 491.304 96.1438 499.86 96.1438 499.86L114.674 534.025L140.749 519.094Z" fill="white"/>
<path d="M116.781 492.977L129.93 497.782L129.715 508.013L115.809 506.395L116.781 492.977Z" fill="white"/>
<path opacity="0.2" d="M128.632 524.393L114.465 533.329L98.2792 506.501L113.903 528.601L128.632 524.393Z" fill="black"/>
<path d="M78.4026 469.402C90.266 469.402 99.8831 459.037 99.8831 446.252C99.8831 433.467 90.266 423.103 78.4026 423.103C66.5393 423.103 56.9221 433.467 56.9221 446.252C56.9221 459.037 66.5393 469.402 78.4026 469.402Z" fill="#2F2E41"/>
<path d="M194.467 502.071L179.426 478.359L185.802 469.854L201.43 494.249L194.467 502.071Z" fill="#835AF1"/>
<path d="M194.043 511.605L171.145 475.73L172.274 474.259L195.065 510.219L194.043 511.605Z" fill="#E6E6E6"/>
<path d="M191.092 515.095L168.194 479.22L169.324 477.749L192.115 513.709L191.092 515.095Z" fill="#E6E6E6"/>
<path d="M188.579 517.663L165.681 481.788L166.81 480.317L189.601 516.277L188.579 517.663Z" fill="#E6E6E6"/>
<path d="M87.9149 430.797H94.5599C97.9244 430.797 101.151 432.238 103.53 434.802C105.909 437.365 107.246 440.843 107.246 444.469V444.469H87.9149V430.797Z" fill="#2F2E41"/>
<path d="M179.448 422.097L178.244 422C178.197 422.676 178.164 423.355 178.124 424.032L172.717 423.837L178.389 435.291L184.759 424.271L179.332 424.075C179.371 423.416 179.403 422.755 179.448 422.097Z" fill="#3F3D56"/>
<path d="M211.163 328.73L212.124 329.521C213.564 327.487 215.069 325.457 216.596 323.487L215.669 322.652C214.13 324.637 212.615 326.682 211.163 328.73Z" fill="#3F3D56"/>
<path d="M220.418 316.794L221.31 317.672C222.913 315.781 224.577 313.902 226.256 312.088L225.4 311.168C223.709 312.996 222.033 314.889 220.418 316.794Z" fill="#3F3D56"/>
<path d="M230.607 305.785L231.424 306.744C233.177 305.009 234.986 303.296 236.803 301.651L236.026 300.654C234.196 302.311 232.372 304.037 230.607 305.785Z" fill="#3F3D56"/>
<path d="M202.917 341.504L203.938 342.199C205.208 340.034 206.542 337.868 207.901 335.762L206.91 335.018C205.54 337.14 204.196 339.322 202.917 341.504Z" fill="#3F3D56"/>
<path d="M241.648 295.786L242.384 296.819C244.272 295.257 246.214 293.722 248.156 292.257L247.463 291.19C245.506 292.666 243.55 294.212 241.648 295.786Z" fill="#3F3D56"/>
<path d="M195.748 355.018L196.822 355.613C197.911 353.332 199.062 351.046 200.243 348.82L199.194 348.174C198.004 350.417 196.844 352.719 195.748 355.018Z" fill="#3F3D56"/>
<path d="M184.095 391.667L182.925 391.343C182.328 393.841 181.775 396.388 181.282 398.915L182.464 399.183C182.954 396.676 183.502 394.147 184.095 391.667Z" fill="#3F3D56"/>
<path d="M253.459 286.877L254.107 287.975C256.11 286.602 258.169 285.258 260.227 283.981L259.624 282.853C257.551 284.14 255.476 285.493 253.459 286.877Z" fill="#3F3D56"/>
<path d="M181.145 406.77L179.953 406.559C179.565 409.1 179.224 411.69 178.94 414.257L180.14 414.411C180.422 411.864 180.76 409.293 181.145 406.77Z" fill="#3F3D56"/>
<path d="M189.717 369.172L190.837 369.662C191.732 367.286 192.691 364.898 193.685 362.565L192.587 362.021C191.585 364.372 190.62 366.778 189.717 369.172Z" fill="#3F3D56"/>
<path d="M184.878 383.857L186.034 384.237C186.731 381.781 187.488 379.309 188.284 376.891L187.146 376.455C186.343 378.891 185.58 381.382 184.878 383.857Z" fill="#3F3D56"/>
<path d="M335.186 260.925C337.555 260.837 339.966 260.801 342.352 260.825L342.363 259.523C339.961 259.499 337.53 259.535 335.145 259.624L335.186 260.925Z" fill="#3F3D56"/>
<path d="M265.947 279.129L266.503 280.285C268.613 279.106 270.772 277.965 272.923 276.891L272.415 275.71C270.248 276.792 268.073 277.942 265.947 279.129Z" fill="#3F3D56"/>
<path d="M363.775 262.548C366.132 262.908 368.51 263.329 370.844 263.8L371.066 262.52C368.715 262.045 366.319 261.621 363.944 261.259L363.775 262.548Z" fill="#3F3D56"/>
<path d="M377.856 265.388C380.17 265.97 382.505 266.617 384.795 267.311L385.122 266.057C382.815 265.358 380.463 264.707 378.131 264.12L377.856 265.388Z" fill="#3F3D56"/>
<path d="M391.646 269.566C393.902 270.368 396.174 271.236 398.398 272.147L398.827 270.93C396.586 270.012 394.298 269.137 392.025 268.329L391.646 269.566Z" fill="#3F3D56"/>
<path d="M349.514 261.062C351.894 261.196 354.298 261.39 356.66 261.636L356.777 260.34C354.397 260.092 351.974 259.897 349.578 259.762L349.514 261.062Z" fill="#3F3D56"/>
<path d="M320.762 260.842L320.909 262.134C323.264 261.822 325.661 261.562 328.035 261.361L327.94 260.062C325.549 260.265 323.133 260.527 320.762 260.842Z" fill="#3F3D56"/>
<path d="M292.577 267.356L292.934 268.599C295.205 267.842 297.522 267.129 299.821 266.481L299.516 265.221C297.199 265.874 294.864 266.592 292.577 267.356Z" fill="#3F3D56"/>
<path d="M279.014 272.605L279.473 273.81C281.669 272.839 283.913 271.909 286.142 271.046L285.734 269.821C283.488 270.69 281.227 271.627 279.014 272.605Z" fill="#3F3D56"/>
<path d="M306.536 263.422L306.789 264.696C309.11 264.159 311.476 263.671 313.823 263.246L313.622 261.962C311.258 262.391 308.874 262.882 306.536 263.422Z" fill="#3F3D56"/>
<path d="M416.425 280.198L409.673 269.445L407.299 274.711C406.724 274.435 406.153 274.152 405.579 273.884L405.099 275.079C405.659 275.341 406.213 275.615 406.771 275.883L404.408 281.124L416.425 280.198Z" fill="#3F3D56"/>
<path d="M593.442 454.419C593.442 464.776 584.714 473.205 573.907 473.205C563.1 473.205 554.373 464.776 554.373 454.419C554.373 444.062 563.1 435.633 573.907 435.633C584.714 435.633 593.442 444.062 593.442 454.419Z" fill="white" stroke="black"/>
<path d="M573.907 483.204C584.972 483.204 593.942 474.569 593.942 463.918C593.942 453.266 584.972 444.632 573.907 444.632C562.842 444.632 553.873 453.266 553.873 463.918C553.873 474.569 562.842 483.204 573.907 483.204Z" fill="#A68BF6"/>
</g>
<line x1="505" y1="117.5" x2="543" y2="117.5" stroke="black"/>
<line y1="-0.5" x2="34.0015" y2="-0.5" transform="matrix(-0.00990309 -0.999951 0.999969 -0.00792872 524.015 135)" stroke="black"/>
<defs>
<clipPath id="clip0">
<rect width="547" height="476" fill="white" transform="translate(47 147)"/>
</clipPath>
</defs>
</svg>
